<svg width="25" height="25" viewBox="0 0 25 25" fill="none" xmlns="http://www.w3.org/2000/svg">
<path d="M21.4844 2.73438H3.51562C3.0835 2.73438 2.73438 3.0835 2.73438 3.51562V21.4844C2.73438 21.9165 3.0835 22.2656 3.51562 22.2656H21.4844C21.9165 22.2656 22.2656 21.9165 22.2656 21.4844V3.51562C22.2656 3.0835 21.9165 2.73438 21.4844 2.73438ZM12.5269 12.6489L7.83936 16.5796C7.7124 16.687 7.51953 16.5967 7.51953 16.4307V14.8999C7.51953 14.8437 7.54639 14.7876 7.59033 14.751L10.271 12.5L7.59033 10.249C7.56789 10.2313 7.54983 10.2086 7.53755 10.1828C7.52528 10.157 7.51911 10.1287 7.51953 10.1001V8.56934C7.51953 8.40332 7.7124 8.31299 7.83936 8.42041L12.5269 12.3486C12.6221 12.4268 12.6221 12.5708 12.5269 12.6489ZM17.4805 16.4307C17.4805 16.5381 17.3975 16.626 17.2974 16.626H12.7808C12.6807 16.626 12.5977 16.5381 12.5977 16.4307V15.2588C12.5977 15.1514 12.6807 15.0635 12.7808 15.0635H17.2974C17.3975 15.0635 17.4805 15.1514 17.4805 15.2588V16.4307Z" fill="#121212"/>
</svg>
